<svg enable-background="new 0 0 512 512" viewBox="0 0 512 512" xmlns="http://www.w3.org/2000/svg"><path d="m204.854 309.75s.227.595.668 1.748c.208.564.522 1.32.791 2.115.28.805.604 1.739.971 2.795.38 1.069.689 2.149 1.094 3.4.386 1.234.843 2.615 1.201 3.973.388 1.388.805 2.879 1.25 4.47.412 1.558.758 3.122 1.175 4.826 1.656 6.804 3.021 14.419 3.798 22.366.426 4.01.607 8.007.696 12.117.006 4.028-.091 8.159-.468 12.194-.379 4.033-.978 8.03-1.825 11.94-.862 3.895-1.972 7.702-3.351 11.379-2.757 7.354-6.624 14.15-11.647 20.157-2.485 3.031-5.389 5.734-8.266 8.533-2.918 2.758-5.904 5.517-9.021 8.191-6.204 5.378-12.798 10.549-19.729 15.385-6.908 4.858-14.174 9.358-21.627 13.487-3.736 2.055-7.531 4.005-11.347 5.865-3.834 1.842-7.702 3.581-11.582 5.217-7.784 3.247-15.627 6.066-23.403 8.401-7.761 2.35-15.446 4.225-22.815 5.681-14.714 2.934-28.219 4.137-38.257 4.394-1.265.022-2.462.043-3.589.062-1.147-.001-2.222-.002-3.223-.003-2.054-.055-3.801-.101-5.218-.139-1.465-.086-2.588-.152-3.345-.196-.78-.068-1.182-.102-1.182-.102s-.035-.403-.102-1.182c-.044-.757-.11-1.88-.196-3.345-.038-1.417-.084-3.164-.139-5.218-.001-1-.002-2.076-.003-3.223.02-1.127.04-2.324.062-3.589.257-10.038 1.459-23.543 4.394-38.257 1.456-7.368 3.331-15.053 5.68-22.815 2.335-7.776 5.154-15.62 8.401-23.403 1.636-3.88 3.375-7.747 5.217-11.582 1.86-3.816 3.81-7.611 5.865-11.347 4.129-7.453 8.629-14.719 13.487-21.627 4.835-6.931 10.007-13.525 15.385-19.729 2.674-3.117 5.432-6.104 8.191-9.021 2.799-2.877 5.502-5.781 8.533-8.266 6.008-5.023 12.803-8.89 20.157-11.647 3.677-1.378 7.484-2.489 11.379-3.351 3.91-.847 7.907-1.446 11.94-1.825 4.035-.377 8.167-.474 12.194-.468 4.11.088 8.106.27 12.117.696 7.947.777 15.562 2.141 22.366 3.798 1.703.416 3.267.763 4.826 1.175 1.591.445 3.082.862 4.47 1.25 1.358.359 2.74.815 3.973 1.201 1.252.404 2.331.714 3.4 1.094 1.056.367 1.989.691 2.795.971.795.269 1.551.583 2.115.791 1.149.435 1.744.663 1.744.663z" fill="#ffb636"/><path d="m76.86 181.752-72.514 72.514c-5.012 5.012-1.462 13.582 5.626 13.582h60.945c2.11 0 4.134.838 5.626 2.33l39.572 39.572 64.271-130.328h-97.9c-2.11-.001-4.134.838-5.626 2.33z" fill="#ff473e"/><path d="m216.161 392.592 39.572 39.572c1.492 1.492 2.33 3.516 2.33 5.626v60.945c0 7.088 8.57 10.638 13.582 5.626l72.514-72.514c1.492-1.492 2.33-3.516 2.33-5.626v-97.9z" fill="#ff473e"/><path d="m505.647 17.875s.026.215.077.637c.047.419.139 1.065.205 1.862.131 1.593.428 4.061.569 7.033.452 6.114.756 14.721.543 25.076-.207 10.361-.937 22.464-2.519 35.602-.354 3.326-.859 6.619-1.347 10.041-.453 3.457-1.098 6.834-1.687 10.373-1.21 7.047-2.72 14.218-4.463 21.533-3.499 14.618-8.067 29.676-13.805 44.697s-12.624 30.025-20.695 44.6c-8.083 14.563-17.278 28.768-27.555 42.27-10.263 13.515-21.594 26.34-33.751 38.338-12.157 11.999-25.124 23.187-38.748 33.341-3.407 2.537-6.834 5.032-10.338 7.419-3.466 2.426-7.007 4.746-10.536 7.044-7.092 4.562-14.334 8.831-21.651 12.837-14.639 8.007-29.64 14.897-44.669 20.626s-30.067 10.318-44.644 13.858c-7.299 1.759-14.432 3.307-21.467 4.528-1.749.315-3.476.626-5.179.933-1.716.294-3.457.536-5.147.801-1.696.259-3.368.514-5.015.765-1.684.214-3.342.426-4.974.633-13.067 1.653-25.09 2.463-35.375 2.746-10.274.294-18.832.04-24.876-.343-2.942-.111-5.394-.393-6.968-.504-.789-.058-1.43-.145-1.844-.187-.418-.047-.631-.07-.631-.07-4.782-.533-8.409-4.329-8.919-8.919 0 0-.024-.212-.07-.63-.042-.414-.129-1.055-.187-1.844-.111-1.574-.393-4.025-.504-6.968-.382-6.044-.636-14.601-.343-24.876.283-10.285 1.093-22.308 2.746-35.375.208-1.632.419-3.291.633-4.974.251-1.647.506-3.319.765-5.015.265-1.69.508-3.43.801-5.147.307-1.703.618-3.43.933-5.179 1.221-7.035 2.769-14.168 4.528-21.467 3.539-14.578 8.128-29.615 13.858-44.644s12.62-30.03 20.626-44.669c4.007-7.316 8.276-14.559 12.837-21.651 2.298-3.529 4.618-7.07 7.044-10.536 2.387-3.505 4.882-6.931 7.419-10.338 10.154-13.624 21.342-26.592 33.341-38.748 11.998-12.157 24.823-23.488 38.338-33.751 13.502-10.276 27.707-19.472 42.27-27.555 14.575-8.071 29.58-14.957 44.6-20.695 15.021-5.738 30.079-10.306 44.697-13.805 7.315-1.743 14.486-3.253 21.533-4.463 3.539-.589 6.916-1.234 10.373-1.687 3.422-.488 6.714-.994 10.041-1.347 13.138-1.582 25.241-2.312 35.602-2.519 10.355-.213 18.962.09 25.076.543 2.972.141 5.44.439 7.033.569.797.066 1.443.157 1.862.205.422.051.637.077.637.077 4.769.575 8.37 4.354 8.92 8.919z" fill="#adbbbc"/><path d="m243.106 271.497s.198.537.583 1.577c.325.981.763 2.392 1.065 3.964.716 3.255.953 7.217-.341 10.663-.638 1.732-1.818 3.176-2.929 4.922-1.141 1.716-2.375 3.572-3.693 5.555-2.639 3.963-5.617 8.434-8.865 13.312-3.278 4.848-6.841 10.088-10.652 15.587-3.812 5.499-7.869 11.26-12.115 17.172-2.137 2.941-4.31 5.932-6.51 8.959-2.231 2.996-4.489 6.029-6.764 9.085-4.589 6.076-9.285 12.215-14.06 18.274-4.757 6.077-9.574 12.095-14.364 17.97-4.781 5.885-9.469 11.692-14.083 17.235-2.298 2.781-4.557 5.516-6.769 8.192-2.242 2.646-4.281 5.389-6.649 7.677-2.353 2.302-5.068 4.116-8.188 5.376-3.093 1.287-6.479 2.133-9.753 2.923-6.57 1.556-12.882 2.693-18.695 3.482-2.904.397-5.681.709-8.304.944-2.609.248-5.133.347-7.345.506-2.229.141-4.357.129-6.135.192-1.805.036-3.43-.023-4.702-.025-1.299-.029-2.337-.094-3.016-.117-.703-.047-1.066-.072-1.066-.072s-.024-.363-.072-1.066c-.023-.679-.088-1.718-.117-3.016-.002-1.272-.061-2.896-.025-4.702.062-1.779.051-3.906.192-6.135.158-2.212.258-4.736.506-7.345.234-2.622.546-5.4.944-8.304.789-5.813 1.926-12.125 3.482-18.695.79-3.273 1.636-6.659 2.923-9.753 1.26-3.121 3.074-5.835 5.376-8.188 2.288-2.367 5.031-4.406 7.678-6.648 2.677-2.212 5.411-4.471 8.192-6.769 5.543-4.614 11.35-9.303 17.235-14.083 5.875-4.79 11.893-9.607 17.97-14.364 6.059-4.776 12.198-9.471 18.274-14.06 3.057-2.276 6.089-4.534 9.085-6.764 3.027-2.2 6.017-4.373 8.959-6.51 5.912-4.245 11.673-8.303 17.172-12.115 5.5-3.811 10.739-7.375 15.587-10.652 4.878-3.248 9.349-6.226 13.312-8.865 1.983-1.318 3.839-2.552 5.555-3.693 1.745-1.111 3.189-2.291 4.922-2.929 3.446-1.294 7.408-1.057 10.663-.341 1.572.302 2.983.74 3.964 1.065 1.036.381 1.573.579 1.573.579z" fill="#ff473e"/><path d="m362.113 206.66c0 29.917-24.253 54.17-54.17 54.17s-54.17-24.253-54.17-54.17 24.253-54.17 54.17-54.17 54.17 24.253 54.17 54.17zm27.229-115.881c-19.044 0-34.482 15.438-34.482 34.482s15.438 34.482 34.482 34.482 34.482-15.438 34.482-34.482-15.438-34.482-34.482-34.482z" fill="#2b3b47"/></svg>