<svg xmlns="http://www.w3.org/2000/svg" viewBox="0 0 800 450" width="800" height="450">
  <defs>
    <linearGradient id="bg" x1="0%" y1="0%" x2="100%" y2="100%">
      <stop offset="0%" style="stop-color:#0a0e1a"/>
      <stop offset="100%" style="stop-color:#0d1526"/>
    </linearGradient>
    <linearGradient id="orangeGrad" x1="0%" y1="0%" x2="100%" y2="0%">
      <stop offset="0%" style="stop-color:#ff9900"/>
      <stop offset="100%" style="stop-color:#ff6b35"/>
    </linearGradient>
    <linearGradient id="nodeGrad" x1="0%" y1="0%" x2="0%" y2="100%">
      <stop offset="0%" style="stop-color:#1a2744"/>
      <stop offset="100%" style="stop-color:#111b35"/>
    </linearGradient>
    <filter id="glow">
      <feGaussianBlur stdDeviation="4" result="coloredBlur"/>
      <feMerge><feMergeNode in="coloredBlur"/><feMergeNode in="SourceGraphic"/></feMerge>
    </filter>
    <filter id="softglow">
      <feGaussianBlur stdDeviation="2" result="coloredBlur"/>
      <feMerge><feMergeNode in="coloredBlur"/><feMergeNode in="SourceGraphic"/></feMerge>
    </filter>
    <marker id="arrowOrange" markerWidth="8" markerHeight="8" refX="6" refY="3" orient="auto">
      <path d="M0,0 L0,6 L8,3 z" fill="#ff9900"/>
    </marker>
    <marker id="arrowBlue" markerWidth="8" markerHeight="8" refX="6" refY="3" orient="auto">
      <path d="M0,0 L0,6 L8,3 z" fill="#4a9eff"/>
    </marker>
  </defs>

  <!-- Background -->
  <rect width="800" height="450" fill="url(#bg)"/>

  <!-- Subtle dot grid -->
  <g fill="#1a2235" opacity="0.7">
    <circle cx="50" cy="50" r="1"/><circle cx="100" cy="50" r="1"/><circle cx="150" cy="50" r="1"/><circle cx="200" cy="50" r="1"/><circle cx="250" cy="50" r="1"/><circle cx="300" cy="50" r="1"/><circle cx="350" cy="50" r="1"/><circle cx="400" cy="50" r="1"/><circle cx="450" cy="50" r="1"/><circle cx="500" cy="50" r="1"/><circle cx="550" cy="50" r="1"/><circle cx="600" cy="50" r="1"/><circle cx="650" cy="50" r="1"/><circle cx="700" cy="50" r="1"/><circle cx="750" cy="50" r="1"/>
    <circle cx="50" cy="100" r="1"/><circle cx="100" cy="100" r="1"/><circle cx="150" cy="100" r="1"/><circle cx="200" cy="100" r="1"/><circle cx="250" cy="100" r="1"/><circle cx="300" cy="100" r="1"/><circle cx="350" cy="100" r="1"/><circle cx="400" cy="100" r="1"/><circle cx="450" cy="100" r="1"/><circle cx="500" cy="100" r="1"/><circle cx="550" cy="100" r="1"/><circle cx="600" cy="100" r="1"/><circle cx="650" cy="100" r="1"/><circle cx="700" cy="100" r="1"/><circle cx="750" cy="100" r="1"/>
    <circle cx="50" cy="150" r="1"/><circle cx="100" cy="150" r="1"/><circle cx="150" cy="150" r="1"/><circle cx="200" cy="150" r="1"/><circle cx="250" cy="150" r="1"/><circle cx="300" cy="150" r="1"/><circle cx="350" cy="150" r="1"/><circle cx="400" cy="150" r="1"/><circle cx="450" cy="150" r="1"/><circle cx="500" cy="150" r="1"/><circle cx="550" cy="150" r="1"/><circle cx="600" cy="150" r="1"/><circle cx="650" cy="150" r="1"/><circle cx="700" cy="150" r="1"/><circle cx="750" cy="150" r="1"/>
    <circle cx="50" cy="200" r="1"/><circle cx="100" cy="200" r="1"/><circle cx="150" cy="200" r="1"/><circle cx="200" cy="200" r="1"/><circle cx="250" cy="200" r="1"/><circle cx="300" cy="200" r="1"/><circle cx="350" cy="200" r="1"/><circle cx="400" cy="200" r="1"/><circle cx="450" cy="200" r="1"/><circle cx="500" cy="200" r="1"/><circle cx="550" cy="200" r="1"/><circle cx="600" cy="200" r="1"/><circle cx="650" cy="200" r="1"/><circle cx="700" cy="200" r="1"/><circle cx="750" cy="200" r="1"/>
    <circle cx="50" cy="250" r="1"/><circle cx="100" cy="250" r="1"/><circle cx="150" cy="250" r="1"/><circle cx="200" cy="250" r="1"/><circle cx="250" cy="250" r="1"/><circle cx="300" cy="250" r="1"/><circle cx="350" cy="250" r="1"/><circle cx="400" cy="250" r="1"/><circle cx="450" cy="250" r="1"/><circle cx="500" cy="250" r="1"/><circle cx="550" cy="250" r="1"/><circle cx="600" cy="250" r="1"/><circle cx="650" cy="250" r="1"/><circle cx="700" cy="250" r="1"/><circle cx="750" cy="250" r="1"/>
    <circle cx="50" cy="300" r="1"/><circle cx="100" cy="300" r="1"/><circle cx="150" cy="300" r="1"/><circle cx="200" cy="300" r="1"/><circle cx="250" cy="300" r="1"/><circle cx="300" cy="300" r="1"/><circle cx="350" cy="300" r="1"/><circle cx="400" cy="300" r="1"/><circle cx="450" cy="300" r="1"/><circle cx="500" cy="300" r="1"/><circle cx="550" cy="300" r="1"/><circle cx="600" cy="300" r="1"/><circle cx="650" cy="300" r="1"/><circle cx="700" cy="300" r="1"/><circle cx="750" cy="300" r="1"/>
    <circle cx="50" cy="350" r="1"/><circle cx="100" cy="350" r="1"/><circle cx="150" cy="350" r="1"/><circle cx="200" cy="350" r="1"/><circle cx="250" cy="350" r="1"/><circle cx="300" cy="350" r="1"/><circle cx="350" cy="350" r="1"/><circle cx="400" cy="350" r="1"/><circle cx="450" cy="350" r="1"/><circle cx="500" cy="350" r="1"/><circle cx="550" cy="350" r="1"/><circle cx="600" cy="350" r="1"/><circle cx="650" cy="350" r="1"/><circle cx="700" cy="350" r="1"/><circle cx="750" cy="350" r="1"/>
    <circle cx="50" cy="400" r="1"/><circle cx="100" cy="400" r="1"/><circle cx="150" cy="400" r="1"/><circle cx="200" cy="400" r="1"/><circle cx="250" cy="400" r="1"/><circle cx="300" cy="400" r="1"/><circle cx="350" cy="400" r="1"/><circle cx="400" cy="400" r="1"/><circle cx="450" cy="400" r="1"/><circle cx="500" cy="400" r="1"/><circle cx="550" cy="400" r="1"/><circle cx="600" cy="400" r="1"/><circle cx="650" cy="400" r="1"/><circle cx="700" cy="400" r="1"/><circle cx="750" cy="400" r="1"/>
  </g>

  <!-- Title block -->
  <text x="40" y="58" font-family="'Inter', 'Helvetica Neue', sans-serif" font-size="42" font-weight="800" fill="#ffffff" filter="url(#glow)">Triage</text>
  <rect x="40" y="66" width="200" height="2.5" rx="1.5" fill="url(#orangeGrad)"/>
  <text x="40" y="88" font-family="'Inter', sans-serif" font-size="12" fill="#6b7fa3" letter-spacing="2">AWS EVENT-DRIVEN ORDER PIPELINE</text>

  <!-- Stats bar -->
  <g transform="translate(40, 104)">
    <rect width="680" height="44" rx="8" fill="#111b30" stroke="#1e2d4a" stroke-width="1"/>
    <!-- Stat 1 -->
    <text x="24" y="16" font-family="monospace" font-size="18" font-weight="bold" fill="#ff9900" filter="url(#softglow)">84 req/s</text>
    <text x="24" y="32" font-family="sans-serif" font-size="10" fill="#6b7fa3">Throughput</text>
    <!-- Divider -->
    <line x1="140" y1="8" x2="140" y2="36" stroke="#1e2d4a" stroke-width="1"/>
    <!-- Stat 2 -->
    <text x="160" y="16" font-family="monospace" font-size="18" font-weight="bold" fill="#ff9900" filter="url(#softglow)">212ms</text>
    <text x="160" y="32" font-family="sans-serif" font-size="10" fill="#6b7fa3">p99 Latency</text>
    <!-- Divider -->
    <line x1="280" y1="8" x2="280" y2="36" stroke="#1e2d4a" stroke-width="1"/>
    <!-- Stat 3 -->
    <text x="300" y="16" font-family="monospace" font-size="18" font-weight="bold" fill="#4ade80" filter="url(#softglow)">0%</text>
    <text x="300" y="32" font-family="sans-serif" font-size="10" fill="#6b7fa3">Error Rate</text>
    <!-- Divider -->
    <line x1="390" y1="8" x2="390" y2="36" stroke="#1e2d4a" stroke-width="1"/>
    <!-- Stat 4 -->
    <text x="410" y="16" font-family="monospace" font-size="18" font-weight="bold" fill="#4a9eff" filter="url(#softglow)">112x</text>
    <text x="410" y="32" font-family="sans-serif" font-size="10" fill="#6b7fa3">Lambda Speedup</text>
    <!-- Divider -->
    <line x1="530" y1="8" x2="530" y2="36" stroke="#1e2d4a" stroke-width="1"/>
    <!-- Stat 5 -->
    <text x="550" y="16" font-family="monospace" font-size="18" font-weight="bold" fill="#c084fc" filter="url(#softglow)">&gt;0.7</text>
    <text x="550" y="32" font-family="sans-serif" font-size="10" fill="#6b7fa3">Fraud Threshold</text>
  </g>

  <!-- Architecture flow diagram -->
  <!-- Node helper: each service box is ~90x56 -->

  <!-- Row 1: API Gateway → SQS → EventBridge -->
  <!-- Node: API / Next.js -->
  <g transform="translate(40, 178)">
    <rect width="100" height="52" rx="8" fill="url(#nodeGrad)" stroke="#2a3f6a" stroke-width="1.2"/>
    <rect width="100" height="3" rx="1.5" fill="#4a9eff" opacity="0.8"/>
    <text x="50" y="24" font-family="monospace" font-size="10" fill="#7db4ff" text-anchor="middle">Next.js</text>
    <text x="50" y="38" font-family="monospace" font-size="9" fill="#4a6080" text-anchor="middle">Frontend</text>
  </g>

  <!-- Arrow → -->
  <line x1="142" y1="204" x2="168" y2="204" stroke="#ff9900" stroke-width="1.5" marker-end="url(#arrowOrange)"/>

  <!-- Node: SQS -->
  <g transform="translate(170, 178)">
    <rect width="100" height="52" rx="8" fill="url(#nodeGrad)" stroke="#2a3f6a" stroke-width="1.2"/>
    <rect width="100" height="3" rx="1.5" fill="#ff9900" opacity="0.8"/>
    <text x="50" y="24" font-family="monospace" font-size="10" fill="#ffb84d" text-anchor="middle">SQS</text>
    <text x="50" y="38" font-family="monospace" font-size="9" fill="#4a6080" text-anchor="middle">Message Queue</text>
  </g>

  <!-- Arrow → -->
  <line x1="272" y1="204" x2="298" y2="204" stroke="#ff9900" stroke-width="1.5" marker-end="url(#arrowOrange)"/>

  <!-- Node: EventBridge -->
  <g transform="translate(300, 178)">
    <rect width="100" height="52" rx="8" fill="url(#nodeGrad)" stroke="#2a3f6a" stroke-width="1.2"/>
    <rect width="100" height="3" rx="1.5" fill="#ff9900" opacity="0.8"/>
    <text x="50" y="24" font-family="monospace" font-size="10" fill="#ffb84d" text-anchor="middle">EventBridge</text>
    <text x="50" y="38" font-family="monospace" font-size="9" fill="#4a6080" text-anchor="middle">Event Router</text>
  </g>

  <!-- Arrow → -->
  <line x1="402" y1="204" x2="428" y2="204" stroke="#ff9900" stroke-width="1.5" marker-end="url(#arrowOrange)"/>

  <!-- Node: Step Functions -->
  <g transform="translate(430, 178)">
    <rect width="110" height="52" rx="8" fill="url(#nodeGrad)" stroke="#2a3f6a" stroke-width="1.2"/>
    <rect width="110" height="3" rx="1.5" fill="#c084fc" opacity="0.8"/>
    <text x="55" y="24" font-family="monospace" font-size="10" fill="#d4a0ff" text-anchor="middle">Step Functions</text>
    <text x="55" y="38" font-family="monospace" font-size="9" fill="#4a6080" text-anchor="middle">Orchestration</text>
  </g>

  <!-- Arrow from Step Functions down to Lambda -->
  <line x1="485" y1="232" x2="485" y2="258" stroke="#c084fc" stroke-width="1.5" marker-end="url(#arrowBlue)"/>

  <!-- Row 2 nodes -->
  <!-- Node: Lambda -->
  <g transform="translate(430, 260)">
    <rect width="110" height="52" rx="8" fill="url(#nodeGrad)" stroke="#2a3f6a" stroke-width="1.2"/>
    <rect width="110" height="3" rx="1.5" fill="#ff9900" opacity="0.8"/>
    <text x="55" y="24" font-family="monospace" font-size="10" fill="#ffb84d" text-anchor="middle">Lambda</text>
    <text x="55" y="38" font-family="monospace" font-size="9" fill="#4a6080" text-anchor="middle">Serverless Fn</text>
  </g>

  <!-- Arrow ← from Lambda to Bedrock -->
  <line x1="428" y1="286" x2="402" y2="286" stroke="#4a9eff" stroke-width="1.5" marker-end="url(#arrowBlue)"/>

  <!-- Node: Bedrock -->
  <g transform="translate(300, 260)">
    <rect width="100" height="52" rx="8" fill="url(#nodeGrad)" stroke="#2a3f6a" stroke-width="1.2"/>
    <rect width="100" height="3" rx="1.5" fill="#4a9eff" opacity="0.8"/>
    <text x="50" y="24" font-family="monospace" font-size="10" fill="#7db4ff" text-anchor="middle">Bedrock</text>
    <text x="50" y="38" font-family="monospace" font-size="9" fill="#4a6080" text-anchor="middle">Fraud AI (LLM)</text>
  </g>

  <!-- Arrow ← to DynamoDB -->
  <line x1="298" y1="286" x2="272" y2="286" stroke="#4a9eff" stroke-width="1.5" marker-end="url(#arrowBlue)"/>

  <!-- Node: DynamoDB -->
  <g transform="translate(170, 260)">
    <rect width="100" height="52" rx="8" fill="url(#nodeGrad)" stroke="#2a3f6a" stroke-width="1.2"/>
    <rect width="100" height="3" rx="1.5" fill="#4ade80" opacity="0.8"/>
    <text x="50" y="24" font-family="monospace" font-size="10" fill="#86efac" text-anchor="middle">DynamoDB</text>
    <text x="50" y="38" font-family="monospace" font-size="9" fill="#4a6080" text-anchor="middle">Order Store</text>
  </g>

  <!-- Arrow ← to X-Ray/CloudWatch -->
  <line x1="168" y1="286" x2="142" y2="286" stroke="#4a9eff" stroke-width="1.5" marker-end="url(#arrowBlue)"/>

  <!-- Node: X-Ray + CloudWatch -->
  <g transform="translate(40, 260)">
    <rect width="100" height="52" rx="8" fill="url(#nodeGrad)" stroke="#2a3f6a" stroke-width="1.2"/>
    <rect width="100" height="3" rx="1.5" fill="#f87171" opacity="0.8"/>
    <text x="50" y="22" font-family="monospace" font-size="9" fill="#fca5a5" text-anchor="middle">X-Ray &amp;</text>
    <text x="50" y="34" font-family="monospace" font-size="9" fill="#fca5a5" text-anchor="middle">CloudWatch</text>
    <text x="50" y="46" font-family="monospace" font-size="8" fill="#4a6080" text-anchor="middle">Observability</text>
  </g>

  <!-- CDK + GitHub Actions badge row -->
  <g transform="translate(40, 336)">
    <rect width="104" height="26" rx="6" fill="#0f1a10" stroke="#4ade80" stroke-width="1"/>
    <text x="52" y="17" font-family="monospace" font-size="10" fill="#4ade80" text-anchor="middle">AWS CDK (IaC)</text>

    <rect x="116" width="128" height="26" rx="6" fill="#0f1a10" stroke="#4ade80" stroke-width="1"/>
    <text x="180" y="17" font-family="monospace" font-size="10" fill="#4ade80" text-anchor="middle">GitHub Actions CI/CD</text>

    <rect x="256" width="86" height="26" rx="6" fill="#0f1a10" stroke="#4ade80" stroke-width="1"/>
    <text x="299" y="17" font-family="monospace" font-size="10" fill="#4ade80" text-anchor="middle">TypeScript</text>

    <rect x="354" width="72" height="26" rx="6" fill="#0f1a10" stroke="#4ade80" stroke-width="1"/>
    <text x="390" y="17" font-family="monospace" font-size="10" fill="#4ade80" text-anchor="middle">Next.js</text>
  </g>

  <!-- Power Tuning note -->
  <g transform="translate(40, 382)">
    <rect width="540" height="48" rx="8" fill="#0d1a10" stroke="#1e3a1e" stroke-width="1"/>
    <text x="16" y="18" font-family="monospace" font-size="11" fill="#6b7fa3">// AWS Power Tuning → 112x Lambda speedup</text>
    <text x="16" y="34" font-family="monospace" font-size="11">
      <tspan fill="#c084fc">const</tspan>
      <tspan fill="#e0e0e0"> fraudScore = </tspan>
      <tspan fill="#4a9eff">await</tspan>
      <tspan fill="#e0e0e0"> bedrock.</tspan>
      <tspan fill="#ffb84d">invoke</tspan>
      <tspan fill="#e0e0e0">(order);</tspan>
    </text>
    <text x="16" y="48" font-family="monospace" font-size="11">
      <tspan fill="#c084fc">if</tspan>
      <tspan fill="#e0e0e0"> (fraudScore </tspan>
      <tspan fill="#f87171">&gt; 0.7</tspan>
      <tspan fill="#e0e0e0">) stepFunctions.</tspan>
      <tspan fill="#ffb84d">flag</tspan>
      <tspan fill="#e0e0e0">(order);</tspan>
    </text>
  </g>

  <!-- Right side decorative element: live badge -->
  <g transform="translate(620, 30)">
    <rect width="140" height="32" rx="16" fill="#0d1a10" stroke="#4ade80" stroke-width="1.5"/>
    <circle cx="18" cy="16" r="5" fill="#4ade80" filter="url(#softglow)"/>
    <text x="30" y="21" font-family="sans-serif" font-size="12" font-weight="600" fill="#4ade80">LIVE</text>
    <text x="65" y="21" font-family="sans-serif" font-size="11" fill="#6b9e6b">netlify.app</text>
  </g>
</svg>
